<?xml version="1.0" encoding="UTF-8" standalone="no"?>
<!-- Created with Inkscape (http://www.inkscape.org/) -->

<svg
   xmlns:dc="http://purl.org/dc/elements/1.1/"
   xmlns:cc="http://creativecommons.org/ns#"
   xmlns:rdf="http://www.w3.org/1999/02/22-rdf-syntax-ns#"
   xmlns:svg="http://www.w3.org/2000/svg"
   xmlns="http://www.w3.org/2000/svg"
   xmlns:sodipodi="http://sodipodi.sourceforge.net/DTD/sodipodi-0.dtd"
   xmlns:inkscape="http://www.inkscape.org/namespaces/inkscape"
   width="210mm"
   height="297mm"
   viewBox="0 0 5000 5000"
   version="1.1"
   id="svg1624"
   inkscape:version="0.92.3 (2405546, 2018-03-11)"
   sodipodi:docname="knight07.svg">
  <defs
     id="defs1618" />
  <sodipodi:namedview
     id="base"
     pagecolor="#ffffff"
     bordercolor="#666666"
     borderopacity="1.0"
     inkscape:pageopacity="0.0"
     inkscape:pageshadow="2"
     inkscape:zoom="0.35"
     inkscape:cx="115.71428"
     inkscape:cy="377.14286"
     inkscape:document-units="mm"
     inkscape:current-layer="layer1"
     showgrid="false"
     inkscape:window-width="1920"
     inkscape:window-height="1015"
     inkscape:window-x="1920"
     inkscape:window-y="0"
     inkscape:window-maximized="1" />
  <metadata
     id="metadata1621">
    <rdf:RDF>
      <cc:Work
         rdf:about="">
        <dc:format>image/svg+xml</dc:format>
        <dc:type
           rdf:resource="http://purl.org/dc/dcmitype/StillImage" />
        <dc:title></dc:title>
      </cc:Work>
    </rdf:RDF>
  </metadata>
  <g
     inkscape:label="Layer 1"
     inkscape:groupmode="layer"
     id="layer1">
    <g
       id="layer102"
       style="fill:#00ffff">
      <path
         id="path890"
         d="m 2818.2946,3151.0773 c -430.0967,113.297 -19.0266,-85.7394 60.5254,-263.2373 14,-37 47,-22 54,23 42.8884,575.2154 114.5304,1211.7796 50.99,1726.53 -69.1146,-1079.2091 2.7361,-1107.8272 -165.5154,-1486.2927 z M 3175.82,2892.84 c 158.0195,139.4413 258.2022,248.9538 431,365 -180.0341,495.2781 -415.2316,1072.4986 -558.45,1507.37 57.6985,-217.7126 28.9902,-1830.1936 127.45,-1872.37 z m 1586,1886 c -26.5724,-649.5969 -334.14,-1106.2132 -743,-1383 -219.291,-360.7126 -452.8595,-407.9281 -617,-570 -227.9,-309.08 -128.49,-207.69 47,-63 126.2149,99.0966 361.8255,270.6997 527,280 52.6761,21.7457 79.2611,189.8084 94,237 457.1091,321.7116 746.1402,657.8703 774,1222 226.026,-170.491 650.6194,-282.9648 934,-366 -54.94,-64.36 -394.74,-135.69 -463,-133 92.32,-110.02 586.08,-96.07 711,-69 159.11,39.23 267.83,102.14 395,169 -108.2494,-274.7863 -487.0573,-514.016 -800,-543 77.4187,-120.0618 229.0869,-366.2581 99.4513,-514.8475 -71.906,340.2527 -235.7713,380.5675 -341.4513,407.8475 -176,44 -352,-3 -554,-149 -562.025,-365.6293 -986.1347,-706.9793 -1051,-894 100.7627,-89.94 183.4873,-133.7573 278,-194 -1021.3338,-683.0299 -1784.8574,-152.5727 -2195,320 -348.5248,-724.7132 -345.2859,84.3085 -155,460 151.26,363.53 83.13,354.64 -170,-52 -109.89,-175.01 -158.78,-390.51 -137,-546 58.34,-472.06 512.93,-966.6 404,-615 -62.91,167.83 5.96,633.37 118,493 568.6001,-771.6214 1511.3975,-826.1459 2670,62 -98.4689,24.5858 -410.1003,30.1823 -578,70 257.3089,213.7275 609.9572,504.7044 845,681 199.1241,136.9915 371.4959,161.7681 548,45 115.6765,-151.6344 120.4804,-247.5694 128,-413 250.4946,47.3737 574.0454,389.2787 470.7627,646.9492 428.5251,303.1606 1217.2508,919.0987 674.9068,1787.0423 C 6577.4992,3881.8705 5510.1769,4435.0916 4761.82,4778.84 Z m -3196,494 c -310.4731,-824.255 313.5201,-1738.9547 192,-1158 -222.746,447.6373 -145.4508,603.0102 -192,1158 z m 2791,313 c 97.4414,-399.2194 134.412,-630.9723 13,-853 -5,0 -11,4 -13,9 -346.19,217.43 -891.87,575.31 -1292,801 -22.43,-232.3 -28.41,-279.3 -38,-535 271.9585,-567.4862 490.1302,-974.0649 782,-1515 774.3806,483.9518 931.3088,1596.9559 586,2074 -28,31 -34,34 -38,19 z m -2362,175 c -34,-28 -36,-33 -76,-228 -35,-168 -52,-355 -34,-373 3,-3 37.07,6.46 66.07,25.46 320.37,172.73 661.19,331.68 987.93,427.54 108,32 119,34 143,22 358.14,-136.78 732.53,-268.3 1069,-469 41,-25 63,-29 73,-12 5.95,158.17 -52.15,555.56 -167,611 -186.5,69.83 -343.89,73.48 -533,43 -113,-18 -335,-71 -415,-99 -52,-18 -83,-20 -108,-7 -242.65,74.34 -491.77,127.18 -737,140 -113.24,-11.12 -199.72,-25.05 -269,-81 z m 879,1938 c -83.03,-59.78 -166.39,-105.51 -245,-168 13.0947,-509.1597 7.9294,-1071.4856 -3.09,-1525.07 -33.26,5.95 -65.14,17.8 -96.91,29.07 0.6918,419.6433 5.453,865.5576 -12,1414 -101.66,-64.07 -158.68,-109.71 -222.86,-172.83 0,-331 -12.14,-1183.17 -12.14,-1183.17 -35.5,7.65 -71.54,6.47 -108,17 11.15,382.18 28.39,762.55 30.06,1101.64 -57.13,-57.13 -128.17,-99.89 -188.22,-178.01 -42.62,-298.05 -59.39,-641.75 -87.34,-924.62 -32.88,5.15 -57.94,-1.22 -89,10.5 165.18,1351.2 21.95,741.49 -276.5,-141.5 -26,-77 -62,-183 -80,-235 -71.8,-200.08 29.17,-68.61 161,38 186.08,147.12 289.98,181.62 473,183 396.7,-29.08 576.52,-84.96 803.72,-111 -8.2656,622.0014 -9.8836,1149.3108 -18.72,1853 -5,3 -17,0 -28,-7 z m 220,252 c -6.4767,-741.5621 -2.2871,-1306.3355 0,-2103 301.24,34.72 732.4,171.82 1059,107 11,-5 36,-16 55,-23 44,-16 209,-127 280,-187 58,-49 127,-102 133,-102 -188.23,527.64 -344.93,988.23 -507,1531 -333.17,293.72 -652.51,547.63 -1009,789 -4,0 -9,-6 -11,-12 z m 230,-316 100,-78 c -0.7192,-516.8286 0.5687,-1033.6536 1.77,-1550.48 -73.1,-12.76 -171.68,-18.47 -231.89,-44.48 -8.4791,761.8722 -4.88,819.7831 -4.88,1763.97 5.75,7.35 91.82,-57.45 135,-91 z m 459,-328 c 11.2817,-411.9362 19.7517,-828.5644 12.7,-1237.01 -85.74,-16.14 -145.24,-30.4 -236.7,-48.99 2.414,591.2373 20.9119,1120.0574 18.48,1429.68 67.6024,-45.4633 124.2806,-88.0703 205.52,-143.68 z m 382.52,-1074.22 c -1.16,-35.45 -1.52,-44.57 -1.52,-134.78 -86.2,1.49 -161.1427,17.188 -244.8627,6.138 1.94,175.92 -1.5573,298.352 -0.1373,417.862 100.5729,-117.8631 213.0922,-243.4443 246.52,-289.22 z M 629.81,7363.84 c -26,-79 -27,-110 -4,-117 293.82,-129.09 620.61,-260.1 903,-366 10,-7 22,-9 26,-5 11,11 -13,158 -28,173 -20,19 -367,189 -628,307 -49,22 -49,22 -24,115 113.25,354.49 184.29,528.19 272,677 -210.68,-171 -441.45,-558.44 -517,-784 z m 2492,926 c 437.72,-317.15 927.38,-812.19 1197,-1107 46,0 79,261 46,370 -41,136 -178,297 -344,407 -123.9968,46.413 -681.9833,340.3344 -899,330 z m 77,1013 c 290.5048,-302.1637 595.6655,-713.2976 719,-1088 278.808,-147.0861 539.9235,-302.072 685.0466,-546.572 50.4075,-215.678 5.5674,-605.3352 -32.8326,-812.7352 140.1818,29.3473 753.8838,320.3756 935.786,405.3072 30,36 -55,248 -178,443 -318.71,416.82 -1711.95,1642.88 -2129,1599 z m -190,678 c -208.35,-150.32 -450.71,-308.56 -561,-478 212.92,73.14 435.85,212.78 594,260 42,0 127,-38 527,-234 98.12,-47.08 -54.65,104.97 -77,125 -146.15,150.9 -272.19,270.19 -456,338 -1,0 -13,-5 -27,-11 z m 2914,-2833 c -438.0064,-260.5912 -915.4409,-516.7543 -1287,-715 184.4283,-444.1719 423.7436,-957.1887 613,-1322 -103.9224,2.7477 -383.3078,125.0411 -519,160 1,-63 23,-241 31,-254 367.0393,-170.8177 799.6214,-364.0245 1138,-414 182,-23 319,23 453,154 217.1426,345.8535 -33.3612,808.9666 62,790 256.652,-76.2041 535.0492,-329.7538 634.6186,-529.4746 C 7314.6031,4255.9848 6695.8303,3610.3863 6228.81,3240.84 c -2.4098,-539.2475 -547.1535,-744.311 -952,-789 60.48,110.49 106.69,555.82 -77,561 -145.0571,-83.4395 -535.5638,-328.6528 -675,-492 233.31,-44.75 307.8053,-63.1227 398.6653,-83.3814 -280.5541,-268.1684 -495.842,-532.1671 -811.6653,-740.6186 -228.3053,-140.8097 -420.6435,-229.1164 -673,-294 -505.0466,-63.2244 -950.5426,92.2527 -1267,190 -359.9,48.98 335.37,-609.24 -384,-154 -379.74,296.26 -543.33,570.09 -618,962 -69.6846,465.8095 162.5846,897.7964 447,1194 94,95 93,92 35,153 -388.8364,414.0611 -415.2251,1025.486 -287,1548 -170.24,-54.32 -322.74,-119.03 -527,-193 -8,0 -7,6 3,18 156.35,313.33 462.66,1008.59 614,1317 -479.60177,274.7598 -740.65207,506.3366 -1279,729 -14,11 -16,19 -9,37 367.31,861.22 1048.25,1655.62 1706,2196 365.98,283.15 836.26,542 1184,723 431.2732,-295.8634 3171.6661,-2467.4288 2866,-2975 z"
         style="fill:#800000"
         inkscape:connector-curvature="0"
         sodipodi:nodetypes="cccccccccccccccccccccccccccccccccccccccccccccccccccccsccccccccccccccccccccccccccccccccccccccccccccccccccccccccccccscccccccccccccccccccccccccccccccccccccccccccccccccccccc" />
    </g>
  </g>
</svg>
