<svg xmlns:svg="http://www.w3.org/2000/svg" xmlns="http://www.w3.org/2000/svg" version="1" width="720" height="908"
  viewBox="0 0 7200 9080" preserveAspectRatio="xMidYMid meet" id="svg893">
  <metadata id="metadata899" />
  <defs id="defs897" />
  <g id="layer102" transform="translate(44.070694,-1155.104)" fill="#0ff">
    <path id="path890"
      d="m2925.82 3732.84c-3-41-13-120-22-175-9-55-20-127-25-160-4-33-10-67-13-75-3-8-13-51-23-95-18-84-35-110-63-96-202.62 102.07-227.52 110.42-4-122 52-54 98-109 103-122 14-37 47-22 54 23 2 21 12 84 21 142 8 58 20 182 25 275 5 94 14 238 19 320 12.72 206 6.87 855.72-14.01 989.53-3.73-62.74-45.11-739.36-57.99-904.53zm163-160c6-96 16-224 21-285 6-60 15-148 19-195 11-120 30-200 47-200 7 0 64 51 126 112 62 62 126 123 142 136 30 22 118 87 163 117 12 9 22 23 22 31 0 9-10 30-22 47-13 18-28 42-35 54-6 12-18 35-26 50-310.66 266.23-353.09 967.11-497.45 1325.37-1.44-393.46 22.85-826.07 40.45-1192.37zm3655 1370c3-5-1-10-9-10-8 0-18-10-21-22-14-45-65-150-94-191-74-108-195-209-321-267-8-4-28-14-45-22-106-52-338-74-491-48-350.74 101.64-696.75 191.88-966 381-16 12-32 18-35 15-4-3-10-55-14-114-25-340-77-557-176-726-82-140-94-155-228-290-101-102-229-206-253-206-6 0-12-4-14-8-1-5-28-23-58-39-51-28-56-35-74-89-57-176-38-151-164-216-167-86-286-169-379-265-227.9-309.08-128.49-207.69 47-63 93 79 219 164 295 200 73 34 206 80 232 80 14 0 24 8 28 23 4 12 20 65 36 118l30 96 107 76c59 41 118 84 132 94 25 19 236 228 258 256 6 9 12 20 12 26 0 5 4 11 9 13 4 2 26 35 47 73 35 62 47 86 84 170 51 115 121 403 125 514 0 17 25 28 25 12 236.2-264.67 605.71-286.18 909-378-54.94-64.36-394.74-135.69-463-133 92.32-110.02 586.08-96.07 711-69 159.11 39.23 267.83 102.14 395 169 3.39-66.49-185.56-321.24-330-360-6 0-12-3-14-8-3-7-159-86-203-103-61-23-229-71-253-72-10 0 16-37 49-67 37-35 55-189 24-217-79.12 75.74-209.32 149.72-315 177-176 44-352-3-554-149-74-53-213-170-285-239-290.38-240.05-459.84-422.94-726-611-38-19-45-26-40-44 8-28 87-102 130-123 51-24 135-44 135-32 0 6 6 5 15-2 20-16 19-29-2-37-10-4-49-31-87-60-145-112-351-221-516-271-154-47-343-67-483-52-111 12-236 38-252 51-5 5-16 9-25 9-9 0-40 11-68 25-29 14-55 25-60 25-15 0-198 116-278 176-97 73-306 275-365 354-24 32-51 60-61 63-10 3-34-14-65-47-187.66-285.22-212.22-368.47-213 24 0 166 1 170 35 275 20 58 59 152 88 208 151.26 363.53 83.13 354.64-170-52-109.89-175.01-158.78-390.51-137-546 58.34-472.06 512.93-966.6 404-615-62.91 167.83 5.96 633.37 118 493 50-70 234-251 318-315 68-52 249-168 262-168 4 0 27-9 49-20 138-66 340-105 548-105 185 0 364 30 550 91 291 96 598 277 839 497 43 40 90 77 104 82-147.12-21.95-436.97 29.26-557 55-12 0-21 6-21 15 0 8 7 15 15 15 344.83 199.91 539.27 451.78 830 666 100 72 195 120 272 140 108 27 186 0 276-95 83-87 117-177 124-325l4-88 32 5c131 21 256 91 364 204 78 82 105 147 105 253 0 48-5 96-11 108-12 23-8 28 94 109 167 133 361 330 478 488 37 50 72 95 77 102 6 7 10 14 10 16 0 2 23 43 50 91 28 48 50 93 50 100 0 7 3 16 7 20 4 4 14 26 21 49 57 184 64 305 26 496-7 34-81 191-90 191-3 0-2-4 1-10zm-5178 330c-39-283-45-468-22-675 51.06-804.88 701.7-1081.96 214-483-73 146-105 409-95 778-1.2 398.11 80.17 885.39-97 380zm2791 313c-3-10-1-65 4-123 14-156 21-730 9-730-5 0-11 4-13 9-346.19 217.43-891.87 575.31-1292 801-22.43-232.3-28.41-279.3-38-535 176.26-415.03 351.63-782.68 551-1205 11-19 24-42 28-50 15-34 120-187 151-222 19-21 42-38 52-38 53 0 302 208 418 350 20 25 43 52 51 60 8 8 38 51 68 96 150 232 201 418 211 778-14.89 255.73 19.13 597.49-162 790-28 31-34 34-38 19zm-2362 175c-34-28-36-33-76-228-35-168-52-355-34-373 3-3 37.07 6.46 66.07 25.46 320.37 172.73 661.19 331.68 987.93 427.54 108 32 119 34 143 22 358.14-136.78 732.53-268.3 1069-469 41-25 63-29 73-12 5.95 158.17-52.15 555.56-167 611-186.5 69.83-343.89 73.48-533 43-113-18-335-71-415-99-52-18-83-20-108-7-242.65 74.34-491.77 127.18-737 140-113.24-11.12-199.72-25.05-269-81zm879 1938c-83.03-59.78-166.39-105.51-245-168v-759c0-732 14.91-766.07-3.09-766.07-33.26 5.95-65.14 17.8-96.91 29.07v703c0 527-3 706-12 711-101.66-64.07-158.68-109.71-222.86-172.83 0-331-12.14-1183.17-12.14-1183.17-35.5 7.65-71.54 6.47-108 17 11.15 382.18 28.39 762.55 30.06 1101.64-57.13-57.13-128.17-99.89-188.22-178.01-42.62-298.05-59.39-641.75-87.34-924.62-32.88 5.15-57.94-1.22-89 10.5 165.18 1351.2 21.95 741.49-276.5-141.5-26-77-62-183-80-235-71.8-200.08 29.17-68.61 161 38 186.08 147.12 289.98 181.62 473 183 396.7-29.08 576.52-84.96 803.72-111-8.68 106.35-11.69 658.67-11.72 965 0 486-3 886-7 888-5 3-17 0-28-7zm220 252c-3-7-4-483-3-1058l3-1045c301.24 34.72 732.4 171.82 1059 107 11-5 36-16 55-23 44-16 209-127 280-187 58-49 127-102 133-102-188.23 527.64-344.93 988.23-507 1531-333.17 293.72-652.51 547.63-1009 789-4 0-9-6-11-12zm230-316 100-78v-789l1.77-761.48c-73.1-12.76-171.68-18.47-231.89-44.48-6.62 549.25-5.01 260.57-4.88 860.97v903c5.75 7.35 91.82-57.45 135-91zm372-266c39-25 79-53 87-62 14-14 16-86 16-629 0-574 2.43-469.14-3.3-608.01-85.74-16.14-145.24-30.4-236.7-48.99v710c0 752 11.37 742 18.48 719.68 11-10 78.52-56.68 118.52-81.68zm469.52-1136.22c-1.16-35.45-1.52-44.57-1.52-134.78-86.2 1.49-180.38 2.76-264.1-8.29 1.94 175.92 17.68 312.78 19.1 432.29 0 22 26 16 36-9 79.8-94.92 159.43-210.48 210.52-280.22zM629.81 7363.84c-26-79-27-110-4-117 293.82-129.09 620.61-260.1 903-366 10-7 22-9 26-5 11 11-13 158-28 173-20 19-367 189-628 307-49 22-49 22-24 115 113.25 354.49 184.29 528.19 272 677-210.68-171-441.45-558.44-517-784zm2492 926c437.72-317.15 927.38-812.19 1197-1107 46 0 79 261 46 370-41 136-178 297-344 407-242.07 159.39-487.23 239.53-751 312-86 25-139 32-148 18zm77 1013c-10.44-40.62 202.99-211.61 247-262 48-55 204-275 246-347 71.09-156.39 179.45-324.6 226-479 23-74 22-72 144-135 123.36-63.42 430.38-317.44 517-426 103.31-201.25 22.4-535.6-16-743-6-34-4-38 14-38 389.83 184.31 657.56 259.42 929 388 30 36-55 248-178 443-318.71 416.82-1711.95 1642.88-2129 1599zm-190 678c-208.35-150.32-450.71-308.56-561-478 212.92 73.14 435.85 212.78 594 260 42 0 127-38 527-234 98.12-47.08-54.65 104.97-77 125-146.15 150.9-272.19 270.19-456 338-1 0-13-5-27-11zm2937-2757c17-38 11-58-23-76-10-6-51-31-90-55-358.8-209.76-735.73-414.03-1197-660-5-4 15-57 43-116 204.25-437 355.58-795.2 570-1206 0-8-47 5-76 20-137.54 69.85-251.32 98.74-396 173-37 19-48 11-47-33 1-63 23-241 31-254 4-6 38-25 75-43 266.73-119.78 585.4-271.57 848-331 22-5 58-13 80-18 22-5 83-15 135-22 182-23 319 23 453 154 57 55 118 154 138 221 27 94 17 246-24 360-19 54-76 165-97 187-24 26-25 34-4 42 24 9 41 7 25-3-11-7-4-11 24-17 22-4 64-18 95-31 271-119 434-260 530-460 39-79 48-112 62-208 6-38 15-80 20-92 6-13 8-38 3-60-4-21-13-78-20-128-24-157-64-306-114-420-5-11-17-38-26-60-133-309-381-610-652-792l-83-55c3.08-170.35-31.53-310.62-140-431-203.5-208.62-482.34-315.35-761-385-46-12-82 7-51 27 60.48 110.49 106.69 555.82-77 561-235.27-57.05-452.76-287.79-650-453-17-15-29-33-25-39 233.31-44.75 593.96 201.39 365-93-25-33-47-62-50-65-3-3-24-27-45-55-86-109-381-391-516-492-74-55-149-109-167-119-17-11-64-38-103-61-80-47-274-143-289-143-6 0-27-7-48-16-66-29-114-44-233-74-162-40-370-56-540-41-72 6-152 15-178 21-26 6-69 15-97 21-58 12-142 37-167 50-10 5-23 9-28 9-18 0-183 81-217 106-17 13-35 24-40 24-359.9 48.98 335.37-609.24-384-154-379.74 296.26-543.33 570.09-618 962-14 69-14 329-1 390 57.02 328.97 245.92 596.52 448 804 94 95 93 92 35 153-82 88-190 287-231 425-52 177-83 431-84 675 0 135 17 411 28 448-170.24-54.32-322.74-119.03-527-193-8 0-7 6 3 18 156.35 313.33 462.66 1008.59 614 1317-3 8-191.28 104.9-278.28 147.9-279 139-331.72 175.1-577.72 319.1-144 85-393 239-423 262-14 11-16 19-9 37 367.31 861.22 1048.25 1655.62 1706 2196 365.98 283.15 836.26 542 1184 723 1165.01-818.63 2440.01-1506.4 2889-2899z"
      style="fill:#800000;" />
  </g>
</svg>